<?xml version='1.0' encoding='UTF-8'?>
<svg xmlns:xlink="http://www.w3.org/1999/xlink" height="496.5" version="1.1" viewBox="-227.8 87.9 772.4 496.5" width="772.4" xmlns="http://www.w3.org/2000/svg">
  <defs>
    <path d="M -1 0 h 2 l -1 1.732 z" fill="#EB1923" id="arrowhead" stroke-width="0" transform="scale(5.625)"/>
  </defs>
  <rect fill="#FFFFFF" height="496.5" id="background" width="772.4" x="-227.8" y="87.9"/>
  <text font-family="monospace" font-size="15.0" font-weight="bold" id="mode-info" x="-222.8" y="579.4">id: 5 | frequency: 32.9036 cm^-1</text>
  <g id="bonds" stroke="#7F8285" stroke-width="3.75">
    <path d="M 37.4 265.4 25.7 289.4"/>
    <path d="M 37.4 265.4 78.1 260.1"/>
    <path d="M 37.4 265.4 6.3 247.5"/>
    <path d="M 311.9 423.9 300.2 447.8"/>
    <path d="M 311.9 423.9 352.6 418.6"/>
    <path d="M 311.9 423.9 280.9 405.9"/>
    <path d="M 25.7 289.4 37.4 265.4"/>
    <path d="M 25.7 289.4 56.0 306.9"/>
    <path d="M 25.7 289.4 -15.6 295.8"/>
    <path d="M 300.2 447.8 311.9 423.9"/>
    <path d="M 300.2 447.8 330.5 465.4"/>
    <path d="M 300.2 447.8 258.9 454.3"/>
    <path d="M 56.0 306.9 25.7 289.4"/>
    <path d="M 56.0 306.9 97.4 301.1"/>
    <path d="M 56.0 306.9 45.0 330.9"/>
    <path d="M 330.5 465.4 300.2 447.8"/>
    <path d="M 330.5 465.4 372.0 459.6"/>
    <path d="M 330.5 465.4 319.6 489.3"/>
    <path d="M 97.4 301.1 56.0 306.9"/>
    <path d="M 97.4 301.1 108.3 277.2"/>
    <path d="M 97.4 301.1 127.7 318.7"/>
    <path d="M 372.0 459.6 330.5 465.4"/>
    <path d="M 372.0 459.6 382.9 435.6"/>
    <path d="M 372.0 459.6 402.3 477.1"/>
    <path d="M 108.3 277.2 97.4 301.1"/>
    <path d="M 108.3 277.2 78.1 260.1"/>
    <path d="M 108.3 277.2 149.6 271.4"/>
    <path d="M 382.9 435.6 372.0 459.6"/>
    <path d="M 382.9 435.6 352.6 418.6"/>
    <path d="M 382.9 435.6 424.2 429.8"/>
    <path d="M 78.1 260.1 37.4 265.4"/>
    <path d="M 78.1 260.1 108.3 277.2"/>
    <path d="M 78.1 260.1 88.0 242.1"/>
    <path d="M 352.6 418.6 311.9 423.9"/>
    <path d="M 352.6 418.6 382.9 435.6"/>
    <path d="M 352.6 418.6 362.5 400.6"/>
    <path d="M 127.7 318.7 97.4 301.1"/>
    <path d="M 127.7 318.7 169.0 312.2"/>
    <path d="M 127.7 318.7 116.0 342.6"/>
    <path d="M 402.3 477.1 372.0 459.6"/>
    <path d="M 402.3 477.1 443.6 470.7"/>
    <path d="M 402.3 477.1 390.6 501.1"/>
    <path d="M 169.0 312.2 127.7 318.7"/>
    <path d="M 169.0 312.2 178.7 288.3"/>
    <path d="M 169.0 312.2 199.8 330.0"/>
    <path d="M 443.6 470.7 402.3 477.1"/>
    <path d="M 443.6 470.7 453.2 446.7"/>
    <path d="M 178.7 288.3 169.0 312.2"/>
    <path d="M 178.7 288.3 149.6 271.4"/>
    <path d="M 178.7 288.3 210.0 282.9"/>
    <path d="M 453.2 446.7 443.6 470.7"/>
    <path d="M 453.2 446.7 424.2 429.8"/>
    <path d="M 453.2 446.7 484.5 441.3"/>
    <path d="M 149.6 271.4 108.3 277.2"/>
    <path d="M 149.6 271.4 178.7 288.3"/>
    <path d="M 149.6 271.4 158.2 253.1"/>
    <path d="M 424.2 429.8 382.9 435.6"/>
    <path d="M 424.2 429.8 453.2 446.7"/>
    <path d="M 424.2 429.8 432.7 411.6"/>
    <path d="M 45.0 330.9 56.0 306.9"/>
    <path d="M 45.0 330.9 75.3 347.9"/>
    <path d="M 45.0 330.9 3.8 336.7"/>
    <path d="M 319.6 489.3 330.5 465.4"/>
    <path d="M 319.6 489.3 349.8 506.4"/>
    <path d="M 319.6 489.3 278.3 495.1"/>
    <path d="M 75.3 347.9 45.0 330.9"/>
    <path d="M 75.3 347.9 116.0 342.6"/>
    <path d="M 75.3 347.9 65.4 365.9"/>
    <path d="M 349.8 506.4 319.6 489.3"/>
    <path d="M 349.8 506.4 390.6 501.1"/>
    <path d="M 349.8 506.4 340.0 524.4"/>
    <path d="M 116.0 342.6 127.7 318.7"/>
    <path d="M 116.0 342.6 75.3 347.9"/>
    <path d="M 116.0 342.6 147.1 360.6"/>
    <path d="M 390.6 501.1 402.3 477.1"/>
    <path d="M 390.6 501.1 349.8 506.4"/>
    <path d="M -15.6 295.8 25.7 289.4"/>
    <path d="M -15.6 295.8 -25.3 319.8"/>
    <path d="M -15.6 295.8 -46.4 278.1"/>
    <path d="M 258.9 454.3 300.2 447.8"/>
    <path d="M 258.9 454.3 249.2 478.2"/>
    <path d="M 258.9 454.3 228.2 436.5"/>
    <path d="M -25.3 319.8 -15.6 295.8"/>
    <path d="M -25.3 319.8 3.8 336.7"/>
    <path d="M -25.3 319.8 -56.6 325.2"/>
    <path d="M 249.2 478.2 258.9 454.3"/>
    <path d="M 249.2 478.2 278.3 495.1"/>
    <path d="M 249.2 478.2 217.9 483.6"/>
    <path d="M 3.8 336.7 45.0 330.9"/>
    <path d="M 3.8 336.7 -25.3 319.8"/>
    <path d="M 3.8 336.7 -4.8 354.9"/>
    <path d="M 278.3 495.1 319.6 489.3"/>
    <path d="M 278.3 495.1 249.2 478.2"/>
    <path d="M 278.3 495.1 269.7 513.4"/>
    <path d="M -74.8 171.5 -85.9 195.4"/>
    <path d="M -74.8 171.5 -33.3 166.0"/>
    <path d="M 199.8 330.0 169.0 312.2"/>
    <path d="M 199.8 330.0 188.6 353.8"/>
    <path d="M 199.8 330.0 241.3 324.4"/>
    <path d="M -127.5 202.1 -85.9 195.4"/>
    <path d="M -127.5 202.1 -136.6 225.6"/>
    <path d="M 147.1 360.6 116.0 342.6"/>
    <path d="M 147.1 360.6 188.6 353.8"/>
    <path d="M 147.1 360.6 137.9 384.1"/>
    <path d="M -46.4 278.1 -15.6 295.8"/>
    <path d="M -46.4 278.1 -35.2 254.3"/>
    <path d="M -46.4 278.1 -87.9 283.7"/>
    <path d="M 228.2 436.5 258.9 454.3"/>
    <path d="M 228.2 436.5 239.3 412.7"/>
    <path d="M 228.2 436.5 186.7 442.1"/>
    <path d="M 6.3 247.5 37.4 265.4"/>
    <path d="M 6.3 247.5 15.5 224.0"/>
    <path d="M 6.3 247.5 -35.2 254.3"/>
    <path d="M 280.9 405.9 311.9 423.9"/>
    <path d="M 280.9 405.9 290.0 382.4"/>
    <path d="M 280.9 405.9 239.3 412.7"/>
    <path d="M 15.5 224.0 6.3 247.5"/>
    <path d="M 15.5 224.0 -14.1 206.5"/>
    <path d="M 15.5 224.0 46.7 218.3"/>
    <path d="M 290.0 382.4 280.9 405.9"/>
    <path d="M 290.0 382.4 260.5 365.0"/>
    <path d="M 290.0 382.4 321.2 376.7"/>
    <path d="M -14.1 206.5 15.5 224.0"/>
    <path d="M -14.1 206.5 -55.5 212.9"/>
    <path d="M -14.1 206.5 -4.0 182.7"/>
    <path d="M 260.5 365.0 290.0 382.4"/>
    <path d="M 260.5 365.0 219.0 371.3"/>
    <path d="M 260.5 365.0 270.6 341.2"/>
    <path d="M -55.5 212.9 -14.1 206.5"/>
    <path d="M -55.5 212.9 -65.6 236.8"/>
    <path d="M -55.5 212.9 -85.9 195.4"/>
    <path d="M 219.0 371.3 260.5 365.0"/>
    <path d="M 219.0 371.3 208.9 395.2"/>
    <path d="M 219.0 371.3 188.6 353.8"/>
    <path d="M -65.6 236.8 -55.5 212.9"/>
    <path d="M -65.6 236.8 -35.2 254.3"/>
    <path d="M -65.6 236.8 -107.1 243.1"/>
    <path d="M 208.9 395.2 219.0 371.3"/>
    <path d="M 208.9 395.2 239.3 412.7"/>
    <path d="M 208.9 395.2 167.5 401.5"/>
    <path d="M -35.2 254.3 -46.4 278.1"/>
    <path d="M -35.2 254.3 6.3 247.5"/>
    <path d="M -35.2 254.3 -65.6 236.8"/>
    <path d="M 239.3 412.7 228.2 436.5"/>
    <path d="M 239.3 412.7 280.9 405.9"/>
    <path d="M 239.3 412.7 208.9 395.2"/>
    <path d="M -107.1 243.1 -65.6 236.8"/>
    <path d="M -107.1 243.1 -117.2 266.9"/>
    <path d="M -107.1 243.1 -136.6 225.6"/>
    <path d="M 167.5 401.5 208.9 395.2"/>
    <path d="M 167.5 401.5 157.4 425.3"/>
    <path d="M 167.5 401.5 137.9 384.1"/>
    <path d="M -117.2 266.9 -107.1 243.1"/>
    <path d="M -117.2 266.9 -87.9 283.7"/>
    <path d="M -117.2 266.9 -148.8 271.8"/>
    <path d="M 157.4 425.3 167.5 401.5"/>
    <path d="M 157.4 425.3 186.7 442.1"/>
    <path d="M 157.4 425.3 125.7 430.3"/>
    <path d="M -87.9 283.7 -46.4 278.1"/>
    <path d="M -87.9 283.7 -117.2 266.9"/>
    <path d="M -87.9 283.7 -97.2 301.7"/>
    <path d="M 186.7 442.1 228.2 436.5"/>
    <path d="M 186.7 442.1 157.4 425.3"/>
    <path d="M 186.7 442.1 177.4 460.2"/>
    <path d="M -85.9 195.4 -74.8 171.5"/>
    <path d="M -85.9 195.4 -127.5 202.1"/>
    <path d="M -85.9 195.4 -55.5 212.9"/>
    <path d="M 188.6 353.8 199.8 330.0"/>
    <path d="M 188.6 353.8 147.1 360.6"/>
    <path d="M 188.6 353.8 219.0 371.3"/>
    <path d="M -4.0 182.7 -14.1 206.5"/>
    <path d="M -4.0 182.7 -33.3 166.0"/>
    <path d="M -4.0 182.7 27.7 177.8"/>
    <path d="M 270.6 341.2 260.5 365.0"/>
    <path d="M 270.6 341.2 241.3 324.4"/>
    <path d="M 270.6 341.2 302.2 336.2"/>
    <path d="M -33.3 166.0 -74.8 171.5"/>
    <path d="M -33.3 166.0 -4.0 182.7"/>
    <path d="M -33.3 166.0 -24.0 147.9"/>
    <path d="M 241.3 324.4 199.8 330.0"/>
    <path d="M 241.3 324.4 270.6 341.2"/>
    <path d="M 241.3 324.4 250.6 306.3"/>
    <path d="M -136.6 225.6 -127.5 202.1"/>
    <path d="M -136.6 225.6 -107.1 243.1"/>
    <path d="M -136.6 225.6 -167.8 231.3"/>
    <path d="M 137.9 384.1 147.1 360.6"/>
    <path d="M 137.9 384.1 167.5 401.5"/>
    <path d="M 137.9 384.1 106.7 389.8"/>
    <path d="M 88.0 242.1 78.1 260.1"/>
    <path d="M 362.5 400.6 352.6 418.6"/>
    <path d="M 210.0 282.9 178.7 288.3"/>
    <path d="M 484.5 441.3 453.2 446.7"/>
    <path d="M 158.2 253.1 149.6 271.4"/>
    <path d="M 432.7 411.6 424.2 429.8"/>
    <path d="M 65.4 365.9 75.3 347.9"/>
    <path d="M 340.0 524.4 349.8 506.4"/>
    <path d="M -56.6 325.2 -25.3 319.8"/>
    <path d="M 217.9 483.6 249.2 478.2"/>
    <path d="M -4.8 354.9 3.8 336.7"/>
    <path d="M 269.7 513.4 278.3 495.1"/>
    <path d="M 46.7 218.3 15.5 224.0"/>
    <path d="M 321.2 376.7 290.0 382.4"/>
    <path d="M -148.8 271.8 -117.2 266.9"/>
    <path d="M 125.7 430.3 157.4 425.3"/>
    <path d="M -97.2 301.7 -87.9 283.7"/>
    <path d="M 177.4 460.2 186.7 442.1"/>
    <path d="M 27.7 177.8 -4.0 182.7"/>
    <path d="M 302.2 336.2 270.6 341.2"/>
    <path d="M -24.0 147.9 -33.3 166.0"/>
    <path d="M 250.6 306.3 241.3 324.4"/>
    <path d="M -167.8 231.3 -136.6 225.6"/>
    <path d="M 106.7 389.8 137.9 384.1"/>
  </g>
  <g id="displacements" stroke="#EB1923" stroke-width="5.25">
    <path d="M 37.4 265.4 37.4 267.6"/>
    <use transform="rotate(-0.0 37.4 267.6)" x="37.4" y="267.6" xlink:href="#arrowhead"/>
    <path d="M 311.9 423.9 311.9 426.0"/>
    <use transform="rotate(-0.0 311.9 426.0)" x="311.9" y="426.0" xlink:href="#arrowhead"/>
    <path d="M 25.7 289.4 25.7 287.8"/>
    <use transform="rotate(-180.0 25.7 287.8)" x="25.7" y="287.8" xlink:href="#arrowhead"/>
    <path d="M 300.2 447.8 300.2 446.3"/>
    <use transform="rotate(-180.0 300.2 446.3)" x="300.2" y="446.3" xlink:href="#arrowhead"/>
    <path d="M 56.0 306.9 56.0 304.2"/>
    <use transform="rotate(-180.0 56.0 304.2)" x="56.0" y="304.2" xlink:href="#arrowhead"/>
    <path d="M 330.5 465.4 330.5 462.7"/>
    <use transform="rotate(-180.0 330.5 462.7)" x="330.5" y="462.7" xlink:href="#arrowhead"/>
    <path d="M 97.4 301.1 97.4 303.8"/>
    <use transform="rotate(-0.0 97.4 303.8)" x="97.4" y="303.8" xlink:href="#arrowhead"/>
    <path d="M 372.0 459.6 372.0 462.3"/>
    <use transform="rotate(-0.0 372.0 462.3)" x="372.0" y="462.3" xlink:href="#arrowhead"/>
    <path d="M 108.3 277.2 108.3 287.1"/>
    <use transform="rotate(-0.0 108.3 287.1)" x="108.3" y="287.1" xlink:href="#arrowhead"/>
    <path d="M 382.9 435.6 382.9 445.5"/>
    <use transform="rotate(-0.0 382.9 445.5)" x="382.9" y="445.5" xlink:href="#arrowhead"/>
    <path d="M 78.1 260.1 78.1 269.7"/>
    <use transform="rotate(-0.0 78.1 269.7)" x="78.1" y="269.7" xlink:href="#arrowhead"/>
    <path d="M 352.6 418.6 352.6 428.2"/>
    <use transform="rotate(-0.0 352.6 428.2)" x="352.6" y="428.2" xlink:href="#arrowhead"/>
    <path d="M 127.7 318.7 127.7 320.2"/>
    <use transform="rotate(-0.0 127.7 320.2)" x="127.7" y="320.2" xlink:href="#arrowhead"/>
    <path d="M 402.3 477.1 402.3 478.7"/>
    <use transform="rotate(-0.0 402.3 478.7)" x="402.3" y="478.7" xlink:href="#arrowhead"/>
    <path d="M 169.0 312.2 169.0 315.9"/>
    <use transform="rotate(-0.0 169.0 315.9)" x="169.0" y="315.9" xlink:href="#arrowhead"/>
    <path d="M 443.6 470.7 443.6 474.3"/>
    <use transform="rotate(-0.0 443.6 474.3)" x="443.6" y="474.3" xlink:href="#arrowhead"/>
    <path d="M 178.7 288.3 178.7 301.4"/>
    <use transform="rotate(-0.0 178.7 301.4)" x="178.7" y="301.4" xlink:href="#arrowhead"/>
    <path d="M 453.2 446.7 453.2 459.8"/>
    <use transform="rotate(-0.0 453.2 459.8)" x="453.2" y="459.8" xlink:href="#arrowhead"/>
    <path d="M 149.6 271.4 149.6 288.1"/>
    <use transform="rotate(-0.0 149.6 288.1)" x="149.6" y="288.1" xlink:href="#arrowhead"/>
    <path d="M 424.2 429.8 424.2 446.6"/>
    <use transform="rotate(-0.0 424.2 446.6)" x="424.2" y="446.6" xlink:href="#arrowhead"/>
    <path d="M 45.0 330.9 45.0 321.0"/>
    <use transform="rotate(-180.0 45.0 321.0)" x="45.0" y="321.0" xlink:href="#arrowhead"/>
    <path d="M 319.6 489.3 319.6 479.4"/>
    <use transform="rotate(-180.0 319.6 479.4)" x="319.6" y="479.4" xlink:href="#arrowhead"/>
    <path d="M 75.3 347.9 75.3 338.3"/>
    <use transform="rotate(-180.0 75.3 338.3)" x="75.3" y="338.3" xlink:href="#arrowhead"/>
    <path d="M 349.8 506.4 349.8 496.8"/>
    <use transform="rotate(-180.0 349.8 496.8)" x="349.8" y="496.8" xlink:href="#arrowhead"/>
    <path d="M 116.0 342.6 116.0 340.5"/>
    <use transform="rotate(-180.0 116.0 340.5)" x="116.0" y="340.5" xlink:href="#arrowhead"/>
    <path d="M 390.6 501.1 390.6 498.9"/>
    <use transform="rotate(-180.0 390.6 498.9)" x="390.6" y="498.9" xlink:href="#arrowhead"/>
    <path d="M -15.6 295.8 -15.6 292.2"/>
    <use transform="rotate(-180.0 -15.6 292.2)" x="-15.6" y="292.2" xlink:href="#arrowhead"/>
    <path d="M 258.9 454.3 258.9 450.6"/>
    <use transform="rotate(-180.0 258.9 450.6)" x="258.9" y="450.6" xlink:href="#arrowhead"/>
    <path d="M -25.3 319.8 -25.3 306.7"/>
    <use transform="rotate(-180.0 -25.3 306.7)" x="-25.3" y="306.7" xlink:href="#arrowhead"/>
    <path d="M 249.2 478.2 249.2 465.1"/>
    <use transform="rotate(-180.0 249.2 465.1)" x="249.2" y="465.1" xlink:href="#arrowhead"/>
    <path d="M 3.8 336.7 3.8 319.9"/>
    <use transform="rotate(-180.0 3.8 319.9)" x="3.8" y="319.9" xlink:href="#arrowhead"/>
    <path d="M 278.3 495.1 278.3 478.4"/>
    <use transform="rotate(-180.0 278.3 478.4)" x="278.3" y="478.4" xlink:href="#arrowhead"/>
    <path d="M -74.8 171.5 -74.8 167.9"/>
    <use transform="rotate(-180.0 -74.8 167.9)" x="-74.8" y="167.9" xlink:href="#arrowhead"/>
    <path d="M 199.8 330.0 199.8 326.3"/>
    <use transform="rotate(-180.0 199.8 326.3)" x="199.8" y="326.3" xlink:href="#arrowhead"/>
    <path d="M -127.5 202.1 -127.5 204.3"/>
    <use transform="rotate(-0.0 -127.5 204.3)" x="-127.5" y="204.3" xlink:href="#arrowhead"/>
    <path d="M 147.1 360.6 147.1 362.7"/>
    <use transform="rotate(-0.0 147.1 362.7)" x="147.1" y="362.7" xlink:href="#arrowhead"/>
    <path d="M -46.4 278.1 -46.4 281.8"/>
    <use transform="rotate(-0.0 -46.4 281.8)" x="-46.4" y="281.8" xlink:href="#arrowhead"/>
    <path d="M 228.2 436.5 228.2 440.2"/>
    <use transform="rotate(-0.0 228.2 440.2)" x="228.2" y="440.2" xlink:href="#arrowhead"/>
    <path d="M 6.3 247.5 6.3 245.3"/>
    <use transform="rotate(-180.0 6.3 245.3)" x="6.3" y="245.3" xlink:href="#arrowhead"/>
    <path d="M 280.9 405.9 280.9 403.8"/>
    <use transform="rotate(-180.0 280.9 403.8)" x="280.9" y="403.8" xlink:href="#arrowhead"/>
    <path d="M 15.5 224.0 15.5 214.4"/>
    <use transform="rotate(-180.0 15.5 214.4)" x="15.5" y="214.4" xlink:href="#arrowhead"/>
    <path d="M 290.0 382.4 290.0 372.9"/>
    <use transform="rotate(-180.0 290.0 372.9)" x="290.0" y="372.9" xlink:href="#arrowhead"/>
    <path d="M -14.1 206.5 -14.1 196.6"/>
    <use transform="rotate(-180.0 -14.1 196.6)" x="-14.1" y="196.6" xlink:href="#arrowhead"/>
    <path d="M 260.5 365.0 260.5 355.1"/>
    <use transform="rotate(-180.0 260.5 355.1)" x="260.5" y="355.1" xlink:href="#arrowhead"/>
    <path d="M -55.5 212.9 -55.5 210.1"/>
    <use transform="rotate(-180.0 -55.5 210.1)" x="-55.5" y="210.1" xlink:href="#arrowhead"/>
    <path d="M 219.0 371.3 219.0 368.6"/>
    <use transform="rotate(-180.0 219.0 368.6)" x="219.0" y="368.6" xlink:href="#arrowhead"/>
    <path d="M -65.6 236.8 -65.6 239.5"/>
    <use transform="rotate(-0.0 -65.6 239.5)" x="-65.6" y="239.5" xlink:href="#arrowhead"/>
    <path d="M 208.9 395.2 208.9 397.9"/>
    <use transform="rotate(-0.0 208.9 397.9)" x="208.9" y="397.9" xlink:href="#arrowhead"/>
    <path d="M -35.2 254.3 -35.2 255.8"/>
    <use transform="rotate(-0.0 -35.2 255.8)" x="-35.2" y="255.8" xlink:href="#arrowhead"/>
    <path d="M 239.3 412.7 239.3 414.3"/>
    <use transform="rotate(-0.0 239.3 414.3)" x="239.3" y="414.3" xlink:href="#arrowhead"/>
    <path d="M -107.1 243.1 -107.1 253.0"/>
    <use transform="rotate(-0.0 -107.1 253.0)" x="-107.1" y="253.0" xlink:href="#arrowhead"/>
    <path d="M 167.5 401.5 167.5 411.4"/>
    <use transform="rotate(-0.0 167.5 411.4)" x="167.5" y="411.4" xlink:href="#arrowhead"/>
    <path d="M -117.2 266.9 -117.2 283.7"/>
    <use transform="rotate(-0.0 -117.2 283.7)" x="-117.2" y="283.7" xlink:href="#arrowhead"/>
    <path d="M 157.4 425.3 157.4 442.1"/>
    <use transform="rotate(-0.0 157.4 442.1)" x="157.4" y="442.1" xlink:href="#arrowhead"/>
    <path d="M -87.9 283.7 -87.9 296.8"/>
    <use transform="rotate(-0.0 -87.9 296.8)" x="-87.9" y="296.8" xlink:href="#arrowhead"/>
    <path d="M 186.7 442.1 186.7 455.2"/>
    <use transform="rotate(-0.0 186.7 455.2)" x="186.7" y="455.2" xlink:href="#arrowhead"/>
    <path d="M -85.9 195.4 -85.9 193.8"/>
    <use transform="rotate(-180.0 -85.9 193.8)" x="-85.9" y="193.8" xlink:href="#arrowhead"/>
    <path d="M 188.6 353.8 188.6 352.2"/>
    <use transform="rotate(-180.0 188.6 352.2)" x="188.6" y="352.2" xlink:href="#arrowhead"/>
    <path d="M -4.0 182.7 -4.0 165.9"/>
    <use transform="rotate(-180.0 -4.0 165.9)" x="-4.0" y="165.9" xlink:href="#arrowhead"/>
    <path d="M 270.6 341.2 270.6 324.4"/>
    <use transform="rotate(-180.0 270.6 324.4)" x="270.6" y="324.4" xlink:href="#arrowhead"/>
    <path d="M -33.3 166.0 -33.3 152.9"/>
    <use transform="rotate(-180.0 -33.3 152.9)" x="-33.3" y="152.9" xlink:href="#arrowhead"/>
    <path d="M 241.3 324.4 241.3 311.3"/>
    <use transform="rotate(-180.0 241.3 311.3)" x="241.3" y="311.3" xlink:href="#arrowhead"/>
    <path d="M -136.6 225.6 -136.6 235.2"/>
    <use transform="rotate(-0.0 -136.6 235.2)" x="-136.6" y="235.2" xlink:href="#arrowhead"/>
    <path d="M 137.9 384.1 137.9 393.6"/>
    <use transform="rotate(-0.0 137.9 393.6)" x="137.9" y="393.6" xlink:href="#arrowhead"/>
    <path d="M 88.0 242.1 88.0 257.7"/>
    <use transform="rotate(0.0 88.0 257.7)" x="88.0" y="257.7" xlink:href="#arrowhead"/>
    <path d="M 362.5 400.6 362.5 416.1"/>
    <use transform="rotate(0.0 362.5 416.1)" x="362.5" y="416.1" xlink:href="#arrowhead"/>
    <path d="M 210.0 282.9 210.0 301.5"/>
    <use transform="rotate(0.0 210.0 301.5)" x="210.0" y="301.5" xlink:href="#arrowhead"/>
    <path d="M 484.5 441.3 484.5 460.0"/>
    <use transform="rotate(0.0 484.5 460.0)" x="484.5" y="460.0" xlink:href="#arrowhead"/>
    <path d="M 158.2 253.1 158.2 277.6"/>
    <use transform="rotate(0.0 158.2 277.6)" x="158.2" y="277.6" xlink:href="#arrowhead"/>
    <path d="M 432.7 411.6 432.7 436.0"/>
    <use transform="rotate(0.0 432.7 436.0)" x="432.7" y="436.0" xlink:href="#arrowhead"/>
    <path d="M 65.4 365.9 65.4 350.4"/>
    <use transform="rotate(-180.0 65.4 350.4)" x="65.4" y="350.4" xlink:href="#arrowhead"/>
    <path d="M 340.0 524.4 340.0 508.8"/>
    <use transform="rotate(-180.0 340.0 508.8)" x="340.0" y="508.8" xlink:href="#arrowhead"/>
    <path d="M -56.6 325.2 -56.6 306.5"/>
    <use transform="rotate(-180.0 -56.6 306.5)" x="-56.6" y="306.5" xlink:href="#arrowhead"/>
    <path d="M 217.9 483.6 217.9 465.0"/>
    <use transform="rotate(-180.0 217.9 465.0)" x="217.9" y="465.0" xlink:href="#arrowhead"/>
    <path d="M -4.8 354.9 -4.8 330.5"/>
    <use transform="rotate(-180.0 -4.8 330.5)" x="-4.8" y="330.5" xlink:href="#arrowhead"/>
    <path d="M 269.7 513.4 269.7 488.9"/>
    <use transform="rotate(-180.0 269.7 488.9)" x="269.7" y="488.9" xlink:href="#arrowhead"/>
    <path d="M 46.7 218.3 46.7 202.8"/>
    <use transform="rotate(-180.0 46.7 202.8)" x="46.7" y="202.8" xlink:href="#arrowhead"/>
    <path d="M 321.2 376.7 321.2 361.2"/>
    <use transform="rotate(-180.0 321.2 361.2)" x="321.2" y="361.2" xlink:href="#arrowhead"/>
    <path d="M -148.8 271.8 -148.8 296.3"/>
    <use transform="rotate(0.0 -148.8 296.3)" x="-148.8" y="296.3" xlink:href="#arrowhead"/>
    <path d="M 125.7 430.3 125.7 454.8"/>
    <use transform="rotate(0.0 125.7 454.8)" x="125.7" y="454.8" xlink:href="#arrowhead"/>
    <path d="M -97.2 301.7 -97.2 320.4"/>
    <use transform="rotate(0.0 -97.2 320.4)" x="-97.2" y="320.4" xlink:href="#arrowhead"/>
    <path d="M 177.4 460.2 177.4 478.8"/>
    <use transform="rotate(0.0 177.4 478.8)" x="177.4" y="478.8" xlink:href="#arrowhead"/>
    <path d="M 27.7 177.8 27.7 153.3"/>
    <use transform="rotate(-180.0 27.7 153.3)" x="27.7" y="153.3" xlink:href="#arrowhead"/>
    <path d="M 302.2 336.2 302.2 311.7"/>
    <use transform="rotate(-180.0 302.2 311.7)" x="302.2" y="311.7" xlink:href="#arrowhead"/>
    <path d="M -24.0 147.9 -24.0 129.3"/>
    <use transform="rotate(-180.0 -24.0 129.3)" x="-24.0" y="129.3" xlink:href="#arrowhead"/>
    <path d="M 250.6 306.3 250.6 287.7"/>
    <use transform="rotate(-180.0 250.6 287.7)" x="250.6" y="287.7" xlink:href="#arrowhead"/>
    <path d="M -167.8 231.3 -167.8 246.9"/>
    <use transform="rotate(0.0 -167.8 246.9)" x="-167.8" y="246.9" xlink:href="#arrowhead"/>
    <path d="M 106.7 389.8 106.7 405.3"/>
    <use transform="rotate(0.0 106.7 405.3)" x="106.7" y="405.3" xlink:href="#arrowhead"/>
  </g>
  <g id="atoms">
    <g fill="#111417" id="c-atoms" stroke="#111417" stroke-width="2.5020000000000002">
      <circle cx="37.4" cy="265.4" r="7.821"/>
      <circle cx="311.9" cy="423.9" r="7.821"/>
      <circle cx="25.7" cy="289.4" r="7.821"/>
      <circle cx="300.2" cy="447.8" r="7.821"/>
      <circle cx="56.0" cy="306.9" r="7.821"/>
      <circle cx="330.5" cy="465.4" r="7.821"/>
      <circle cx="97.4" cy="301.1" r="7.821"/>
      <circle cx="372.0" cy="459.6" r="7.821"/>
      <circle cx="108.3" cy="277.2" r="7.821"/>
      <circle cx="382.9" cy="435.6" r="7.821"/>
      <circle cx="78.1" cy="260.1" r="7.821"/>
      <circle cx="352.6" cy="418.6" r="7.821"/>
      <circle cx="127.7" cy="318.7" r="7.821"/>
      <circle cx="402.3" cy="477.1" r="7.821"/>
      <circle cx="169.0" cy="312.2" r="7.821"/>
      <circle cx="443.6" cy="470.7" r="7.821"/>
      <circle cx="178.7" cy="288.3" r="7.821"/>
      <circle cx="453.2" cy="446.7" r="7.821"/>
      <circle cx="149.6" cy="271.4" r="7.821"/>
      <circle cx="424.2" cy="429.8" r="7.821"/>
      <circle cx="45.0" cy="330.9" r="7.821"/>
      <circle cx="319.6" cy="489.3" r="7.821"/>
      <circle cx="75.3" cy="347.9" r="7.821"/>
      <circle cx="349.8" cy="506.4" r="7.821"/>
      <circle cx="116.0" cy="342.6" r="7.821"/>
      <circle cx="390.6" cy="501.1" r="7.821"/>
      <circle cx="-15.6" cy="295.8" r="7.821"/>
      <circle cx="258.9" cy="454.3" r="7.821"/>
      <circle cx="-25.3" cy="319.8" r="7.821"/>
      <circle cx="249.2" cy="478.2" r="7.821"/>
      <circle cx="3.8" cy="336.7" r="7.821"/>
      <circle cx="278.3" cy="495.1" r="7.821"/>
      <circle cx="-74.8" cy="171.5" r="7.821"/>
      <circle cx="199.8" cy="330.0" r="7.821"/>
      <circle cx="-127.5" cy="202.1" r="7.821"/>
      <circle cx="147.1" cy="360.6" r="7.821"/>
      <circle cx="-46.4" cy="278.1" r="7.821"/>
      <circle cx="228.2" cy="436.5" r="7.821"/>
      <circle cx="6.3" cy="247.5" r="7.821"/>
      <circle cx="280.9" cy="405.9" r="7.821"/>
      <circle cx="15.5" cy="224.0" r="7.821"/>
      <circle cx="290.0" cy="382.4" r="7.821"/>
      <circle cx="-14.1" cy="206.5" r="7.821"/>
      <circle cx="260.5" cy="365.0" r="7.821"/>
      <circle cx="-55.5" cy="212.9" r="7.821"/>
      <circle cx="219.0" cy="371.3" r="7.821"/>
      <circle cx="-65.6" cy="236.8" r="7.821"/>
      <circle cx="208.9" cy="395.2" r="7.821"/>
      <circle cx="-35.2" cy="254.3" r="7.821"/>
      <circle cx="239.3" cy="412.7" r="7.821"/>
      <circle cx="-107.1" cy="243.1" r="7.821"/>
      <circle cx="167.5" cy="401.5" r="7.821"/>
      <circle cx="-117.2" cy="266.9" r="7.821"/>
      <circle cx="157.4" cy="425.3" r="7.821"/>
      <circle cx="-87.9" cy="283.7" r="7.821"/>
      <circle cx="186.7" cy="442.1" r="7.821"/>
      <circle cx="-85.9" cy="195.4" r="7.821"/>
      <circle cx="188.6" cy="353.8" r="7.821"/>
      <circle cx="-4.0" cy="182.7" r="7.821"/>
      <circle cx="270.6" cy="341.2" r="7.821"/>
      <circle cx="-33.3" cy="166.0" r="7.821"/>
      <circle cx="241.3" cy="324.4" r="7.821"/>
      <circle cx="-136.6" cy="225.6" r="7.821"/>
      <circle cx="137.9" cy="384.1" r="7.821"/>
    </g>
    <g fill="#FFFFFF" id="h-atoms" stroke="#111417" stroke-width="2.5020000000000002">
      <circle cx="88.0" cy="242.1" r="5.007"/>
      <circle cx="362.5" cy="400.6" r="5.007"/>
      <circle cx="210.0" cy="282.9" r="5.007"/>
      <circle cx="484.5" cy="441.3" r="5.007"/>
      <circle cx="158.2" cy="253.1" r="5.007"/>
      <circle cx="432.7" cy="411.6" r="5.007"/>
      <circle cx="65.4" cy="365.9" r="5.007"/>
      <circle cx="340.0" cy="524.4" r="5.007"/>
      <circle cx="-56.6" cy="325.2" r="5.007"/>
      <circle cx="217.9" cy="483.6" r="5.007"/>
      <circle cx="-4.8" cy="354.9" r="5.007"/>
      <circle cx="269.7" cy="513.4" r="5.007"/>
      <circle cx="46.7" cy="218.3" r="5.007"/>
      <circle cx="321.2" cy="376.7" r="5.007"/>
      <circle cx="-148.8" cy="271.8" r="5.007"/>
      <circle cx="125.7" cy="430.3" r="5.007"/>
      <circle cx="-97.2" cy="301.7" r="5.007"/>
      <circle cx="177.4" cy="460.2" r="5.007"/>
      <circle cx="27.7" cy="177.8" r="5.007"/>
      <circle cx="302.2" cy="336.2" r="5.007"/>
      <circle cx="-24.0" cy="147.9" r="5.007"/>
      <circle cx="250.6" cy="306.3" r="5.007"/>
      <circle cx="-167.8" cy="231.3" r="5.007"/>
      <circle cx="106.7" cy="389.8" r="5.007"/>
    </g>
  </g>
</svg>
